<svg xmlns="http://www.w3.org/2000/svg" width="280" height="80" viewBox="0 0 280 80">
  <rect width="280" height="80" fill="#04020c"/>
  <!-- Lamp post -->
  <rect x="25" y="20" width="3" height="38" fill="#3a3a5a"/>
  <rect x="18" y="16" width="10" height="3" fill="#3a3a5a"/>
  <rect x="16" y="10" width="8" height="7" fill="#5a5a7a"/>
  <circle cx="20" cy="13" r="6" fill="#5ef2ff" opacity="0.1"/>
  <circle cx="20" cy="13" r="4" fill="#5ef2ff" opacity="0.2"/>
  <circle cx="20" cy="13" r="2" fill="#eeffff" opacity="0.9"/>
  <text x="27" y="72" text-anchor="middle" fill="#333355" font-size="7" font-family="monospace">LAMP</text>
  <!-- Terminal -->
  <rect x="60" y="18" width="20" height="26" fill="#0e0e22"/>
  <rect x="62" y="20" width="16" height="12" fill="#001422"/>
  <rect x="62" y="20" width="16" height="12" fill="#5ef2ff" opacity="0.2"/>
  <rect x="63" y="21" width="6" height="1" fill="#5ef2ff" opacity="0.7"/>
  <rect x="63" y="23" width="8" height="1" fill="#5ef2ff" opacity="0.6"/>
  <rect x="63" y="25" width="5" height="1" fill="#5ef2ff" opacity="0.5"/>
  <circle cx="76" cy="21" r="2" fill="#8dff6a" opacity="0.9"/>
  <text x="70" y="72" text-anchor="middle" fill="#333355" font-size="7" font-family="monospace">TERMINAL</text>
  <!-- Vending -->
  <rect x="100" y="12" width="20" height="38" fill="#1a0a28"/>
  <rect x="100" y="12" width="20" height="38" fill="none" stroke="#ff4fd8" stroke-width="1" opacity="0.5"/>
  <rect x="103" y="15" width="14" height="12" fill="#ff4fd8" opacity="0.25"/>
  <rect x="106" y="18" width="2" height="6" fill="#ffd84d" opacity="0.9"/>
  <rect x="103" y="18" width="8" height="2" fill="#ffd84d" opacity="0.9"/>
  <rect x="103" y="22" width="8" height="2" fill="#ffd84d" opacity="0.9"/>
  <text x="110" y="72" text-anchor="middle" fill="#333355" font-size="7" font-family="monospace">VENDOR</text>
  <!-- Bush planter -->
  <rect x="138" y="44" width="36" height="14" fill="#3a3a4e"/>
  <ellipse cx="156" cy="40" rx="18" ry="10" fill="#1a5500"/>
  <ellipse cx="148" cy="39" rx="10" ry="8" fill="#226600"/>
  <ellipse cx="164" cy="39" rx="10" ry="8" fill="#226600"/>
  <circle cx="144" cy="36" r="3" fill="#4466ff" opacity="0.85"/>
  <circle cx="156" cy="33" r="3" fill="#4466ff" opacity="0.85"/>
  <circle cx="166" cy="36" r="3" fill="#4466ff" opacity="0.85"/>
  <circle cx="150" cy="34" r="2" fill="#8899ff" opacity="0.7"/>
  <text x="156" y="72" text-anchor="middle" fill="#333355" font-size="7" font-family="monospace">PLANTER</text>
  <!-- Billboard -->
  <rect x="204" y="8" width="44" height="28" fill="#06040e"/>
  <rect x="204" y="8" width="44" height="28" fill="none" stroke="#5ef2ff" stroke-width="1" opacity="0.5"/>
  <rect x="204" y="8" width="44" height="2" fill="#ffd84d" opacity="0.6"/>
  <rect x="208" y="12" width="36" height="7" fill="#ffd84d" opacity="0.9"/>
  <rect x="208" y="22" width="20" height="2" fill="#5ef2ff" opacity="0.6"/>
  <rect x="208" y="26" width="28" height="2" fill="#8dff6a" opacity="0.5"/>
  <rect x="216" y="36" width="4" height="14" fill="#3a3a5a"/>
  <rect x="234" y="36" width="4" height="14" fill="#3a3a5a"/>
  <text x="226" y="72" text-anchor="middle" fill="#333355" font-size="7" font-family="monospace">BILLBOARD</text>
</svg>
