<svg xmlns="http://www.w3.org/2000/svg" width="640" height="48" viewBox="0 0 640 48" shape-rendering="crispEdges">
<rect width="100%" height="100%" fill="transparent"/>
<rect x="13" y="14" width="6" height="7" fill="#cfa983"/>
<rect x="10" y="21" width="12" height="12" fill="#67f9ff"/>
<rect x="12" y="22" width="8" height="4" fill="#ffffff" opacity="0.24"/>
<rect x="8" y="23" width="2" height="8" fill="#cfa983"/>
<rect x="22" y="22" width="2" height="8" fill="#cfa983"/>
<rect x="11" y="33" width="4" height="10" fill="#1c3744"/>
<rect x="17" y="33" width="4" height="10" fill="#1c3744"/>
<ellipse cx="16" cy="44" rx="8" ry="3" fill="#000814" opacity="0.35"/>
<rect x="23" y="30" width="2" height="5" fill="#89f3ff"/>
<rect x="14" y="24" width="4" height="1" fill="#ffffff" opacity="0.4"/>
<rect x="45" y="13" width="6" height="7" fill="#cfa983"/>
<rect x="42" y="20" width="12" height="12" fill="#67f9ff"/>
<rect x="44" y="21" width="8" height="4" fill="#ffffff" opacity="0.24"/>
<rect x="40" y="21" width="2" height="8" fill="#cfa983"/>
<rect x="54" y="22" width="2" height="8" fill="#cfa983"/>
<rect x="43" y="32" width="4" height="10" fill="#1c3744"/>
<rect x="49" y="32" width="4" height="10" fill="#1c3744"/>
<ellipse cx="48" cy="44" rx="8" ry="3" fill="#000814" opacity="0.35"/>
<rect x="55" y="29" width="2" height="5" fill="#89f3ff"/>
<rect x="46" y="23" width="4" height="1" fill="#ffffff" opacity="0.4"/>
<rect x="77" y="12" width="6" height="7" fill="#cfa983"/>
<rect x="74" y="19" width="12" height="12" fill="#67f9ff"/>
<rect x="76" y="20" width="8" height="4" fill="#ffffff" opacity="0.24"/>
<rect x="72" y="21" width="2" height="8" fill="#cfa983"/>
<rect x="86" y="20" width="2" height="8" fill="#cfa983"/>
<rect x="75" y="32" width="4" height="10" fill="#1c3744"/>
<rect x="81" y="30" width="4" height="10" fill="#1c3744"/>
<ellipse cx="80" cy="44" rx="8" ry="3" fill="#000814" opacity="0.35"/>
<rect x="87" y="28" width="2" height="5" fill="#89f3ff"/>
<rect x="78" y="22" width="4" height="1" fill="#ffffff" opacity="0.4"/>
<rect x="109" y="13" width="6" height="7" fill="#cfa983"/>
<rect x="106" y="20" width="12" height="12" fill="#67f9ff"/>
<rect x="108" y="21" width="8" height="4" fill="#ffffff" opacity="0.24"/>
<rect x="104" y="21" width="2" height="8" fill="#cfa983"/>
<rect x="118" y="22" width="2" height="8" fill="#cfa983"/>
<rect x="107" y="32" width="4" height="10" fill="#1c3744"/>
<rect x="113" y="32" width="4" height="10" fill="#1c3744"/>
<ellipse cx="112" cy="44" rx="8" ry="3" fill="#000814" opacity="0.35"/>
<rect x="119" y="29" width="2" height="5" fill="#89f3ff"/>
<rect x="110" y="23" width="4" height="1" fill="#ffffff" opacity="0.4"/>
<rect x="141" y="14" width="6" height="7" fill="#cfa983"/>
<rect x="138" y="21" width="12" height="12" fill="#67f9ff"/>
<rect x="140" y="22" width="8" height="4" fill="#ffffff" opacity="0.24"/>
<rect x="136" y="23" width="2" height="8" fill="#cfa983"/>
<rect x="150" y="22" width="2" height="8" fill="#cfa983"/>
<rect x="139" y="33" width="4" height="10" fill="#1c3744"/>
<rect x="145" y="33" width="4" height="10" fill="#1c3744"/>
<ellipse cx="144" cy="44" rx="8" ry="3" fill="#000814" opacity="0.35"/>
<rect x="151" y="30" width="2" height="5" fill="#89f3ff"/>
<rect x="142" y="24" width="4" height="1" fill="#ffffff" opacity="0.4"/>
<rect x="173" y="14" width="6" height="7" fill="#cfa983"/>
<rect x="170" y="21" width="12" height="12" fill="#67f9ff"/>
<rect x="172" y="22" width="8" height="4" fill="#ffffff" opacity="0.24"/>
<rect x="168" y="22" width="2" height="8" fill="#cfa983"/>
<rect x="182" y="23" width="2" height="8" fill="#cfa983"/>
<rect x="171" y="33" width="4" height="10" fill="#1c3744"/>
<rect x="177" y="33" width="4" height="10" fill="#1c3744"/>
<ellipse cx="176" cy="44" rx="8" ry="3" fill="#000814" opacity="0.35"/>
<rect x="183" y="30" width="2" height="5" fill="#89f3ff"/>
<rect x="167" y="26" width="2" height="2" fill="#ffffff" opacity="0.25"/>
<rect x="205" y="13" width="6" height="7" fill="#cfa983"/>
<rect x="202" y="20" width="12" height="12" fill="#67f9ff"/>
<rect x="204" y="21" width="8" height="4" fill="#ffffff" opacity="0.24"/>
<rect x="200" y="22" width="2" height="8" fill="#cfa983"/>
<rect x="214" y="21" width="2" height="8" fill="#cfa983"/>
<rect x="203" y="32" width="4" height="10" fill="#1c3744"/>
<rect x="209" y="32" width="4" height="10" fill="#1c3744"/>
<ellipse cx="208" cy="44" rx="8" ry="3" fill="#000814" opacity="0.35"/>
<rect x="215" y="29" width="2" height="5" fill="#89f3ff"/>
<rect x="199" y="25" width="2" height="2" fill="#ffffff" opacity="0.25"/>
<rect x="237" y="12" width="6" height="7" fill="#cfa983"/>
<rect x="234" y="19" width="12" height="12" fill="#67f9ff"/>
<rect x="236" y="20" width="8" height="4" fill="#ffffff" opacity="0.24"/>
<rect x="232" y="20" width="2" height="8" fill="#cfa983"/>
<rect x="246" y="21" width="2" height="8" fill="#cfa983"/>
<rect x="235" y="32" width="4" height="10" fill="#1c3744"/>
<rect x="241" y="30" width="4" height="10" fill="#1c3744"/>
<ellipse cx="240" cy="44" rx="8" ry="3" fill="#000814" opacity="0.35"/>
<rect x="247" y="28" width="2" height="5" fill="#89f3ff"/>
<rect x="231" y="24" width="2" height="2" fill="#ffffff" opacity="0.25"/>
<rect x="269" y="13" width="6" height="7" fill="#cfa983"/>
<rect x="266" y="20" width="12" height="12" fill="#67f9ff"/>
<rect x="268" y="21" width="8" height="4" fill="#ffffff" opacity="0.24"/>
<rect x="264" y="22" width="2" height="8" fill="#cfa983"/>
<rect x="278" y="21" width="2" height="8" fill="#cfa983"/>
<rect x="267" y="32" width="4" height="10" fill="#1c3744"/>
<rect x="273" y="32" width="4" height="10" fill="#1c3744"/>
<ellipse cx="272" cy="44" rx="8" ry="3" fill="#000814" opacity="0.35"/>
<rect x="279" y="29" width="2" height="5" fill="#89f3ff"/>
<rect x="263" y="25" width="2" height="2" fill="#ffffff" opacity="0.25"/>
<rect x="301" y="14" width="6" height="7" fill="#cfa983"/>
<rect x="298" y="21" width="12" height="12" fill="#67f9ff"/>
<rect x="300" y="22" width="8" height="4" fill="#ffffff" opacity="0.24"/>
<rect x="296" y="22" width="2" height="8" fill="#cfa983"/>
<rect x="310" y="23" width="2" height="8" fill="#cfa983"/>
<rect x="299" y="33" width="4" height="10" fill="#1c3744"/>
<rect x="305" y="33" width="4" height="10" fill="#1c3744"/>
<ellipse cx="304" cy="44" rx="8" ry="3" fill="#000814" opacity="0.35"/>
<rect x="311" y="30" width="2" height="5" fill="#89f3ff"/>
<rect x="295" y="26" width="2" height="2" fill="#ffffff" opacity="0.25"/>
<rect x="333" y="14" width="6" height="7" fill="#cfa983"/>
<rect x="330" y="21" width="12" height="12" fill="#67f9ff"/>
<rect x="332" y="22" width="8" height="4" fill="#ffffff" opacity="0.24"/>
<rect x="328" y="23" width="2" height="8" fill="#cfa983"/>
<rect x="342" y="22" width="2" height="8" fill="#cfa983"/>
<rect x="331" y="33" width="4" height="10" fill="#1c3744"/>
<rect x="337" y="33" width="4" height="10" fill="#1c3744"/>
<ellipse cx="336" cy="44" rx="8" ry="3" fill="#000814" opacity="0.35"/>
<rect x="343" y="30" width="2" height="5" fill="#89f3ff"/>
<rect x="344" y="24" width="3" height="3" fill="#ffd155" opacity="0.8"/>
<rect x="365" y="13" width="6" height="7" fill="#cfa983"/>
<rect x="362" y="20" width="12" height="12" fill="#67f9ff"/>
<rect x="364" y="21" width="8" height="4" fill="#ffffff" opacity="0.24"/>
<rect x="360" y="21" width="2" height="8" fill="#cfa983"/>
<rect x="374" y="22" width="2" height="8" fill="#cfa983"/>
<rect x="363" y="32" width="4" height="10" fill="#1c3744"/>
<rect x="369" y="32" width="4" height="10" fill="#1c3744"/>
<ellipse cx="368" cy="44" rx="8" ry="3" fill="#000814" opacity="0.35"/>
<rect x="375" y="29" width="2" height="5" fill="#89f3ff"/>
<rect x="376" y="23" width="3" height="3" fill="#ffd155" opacity="0.8"/>
<rect x="397" y="12" width="6" height="7" fill="#cfa983"/>
<rect x="394" y="19" width="12" height="12" fill="#67f9ff"/>
<rect x="396" y="20" width="8" height="4" fill="#ffffff" opacity="0.24"/>
<rect x="392" y="21" width="2" height="8" fill="#cfa983"/>
<rect x="406" y="20" width="2" height="8" fill="#cfa983"/>
<rect x="395" y="32" width="4" height="10" fill="#1c3744"/>
<rect x="401" y="30" width="4" height="10" fill="#1c3744"/>
<ellipse cx="400" cy="44" rx="8" ry="3" fill="#000814" opacity="0.35"/>
<rect x="407" y="28" width="2" height="5" fill="#89f3ff"/>
<rect x="408" y="22" width="3" height="3" fill="#ffd155" opacity="0.8"/>
<rect x="429" y="13" width="6" height="7" fill="#cfa983"/>
<rect x="426" y="20" width="12" height="12" fill="#67f9ff"/>
<rect x="428" y="21" width="8" height="4" fill="#ffffff" opacity="0.24"/>
<rect x="424" y="21" width="2" height="8" fill="#cfa983"/>
<rect x="438" y="22" width="2" height="8" fill="#cfa983"/>
<rect x="427" y="32" width="4" height="10" fill="#1c3744"/>
<rect x="433" y="32" width="4" height="10" fill="#1c3744"/>
<ellipse cx="432" cy="44" rx="8" ry="3" fill="#000814" opacity="0.35"/>
<rect x="439" y="29" width="2" height="5" fill="#89f3ff"/>
<rect x="440" y="23" width="3" height="3" fill="#ffd155" opacity="0.8"/>
<rect x="461" y="14" width="6" height="7" fill="#cfa983"/>
<rect x="458" y="21" width="12" height="12" fill="#67f9ff"/>
<rect x="460" y="22" width="8" height="4" fill="#ffffff" opacity="0.24"/>
<rect x="456" y="23" width="2" height="8" fill="#cfa983"/>
<rect x="470" y="22" width="2" height="8" fill="#cfa983"/>
<rect x="459" y="33" width="4" height="10" fill="#1c3744"/>
<rect x="465" y="33" width="4" height="10" fill="#1c3744"/>
<ellipse cx="464" cy="44" rx="8" ry="3" fill="#000814" opacity="0.35"/>
<rect x="471" y="30" width="2" height="5" fill="#89f3ff"/>
<rect x="472" y="24" width="3" height="3" fill="#ffd155" opacity="0.8"/>
<rect x="493" y="14" width="6" height="7" fill="#cfa983"/>
<rect x="490" y="21" width="12" height="12" fill="#67f9ff"/>
<rect x="492" y="22" width="8" height="4" fill="#ffffff" opacity="0.24"/>
<rect x="488" y="22" width="2" height="8" fill="#cfa983"/>
<rect x="502" y="23" width="2" height="8" fill="#cfa983"/>
<rect x="491" y="33" width="4" height="10" fill="#1c3744"/>
<rect x="497" y="33" width="4" height="10" fill="#1c3744"/>
<ellipse cx="496" cy="44" rx="8" ry="3" fill="#000814" opacity="0.35"/>
<rect x="503" y="30" width="2" height="5" fill="#89f3ff"/>
<rect x="495" y="11" width="2" height="2" fill="#7ef6ff" opacity="0.85"/>
<rect x="525" y="13" width="6" height="7" fill="#cfa983"/>
<rect x="522" y="20" width="12" height="12" fill="#67f9ff"/>
<rect x="524" y="21" width="8" height="4" fill="#ffffff" opacity="0.24"/>
<rect x="520" y="22" width="2" height="8" fill="#cfa983"/>
<rect x="534" y="21" width="2" height="8" fill="#cfa983"/>
<rect x="523" y="32" width="4" height="10" fill="#1c3744"/>
<rect x="529" y="32" width="4" height="10" fill="#1c3744"/>
<ellipse cx="528" cy="44" rx="8" ry="3" fill="#000814" opacity="0.35"/>
<rect x="535" y="29" width="2" height="5" fill="#89f3ff"/>
<rect x="527" y="10" width="2" height="2" fill="#7ef6ff" opacity="0.85"/>
<rect x="557" y="12" width="6" height="7" fill="#cfa983"/>
<rect x="554" y="19" width="12" height="12" fill="#67f9ff"/>
<rect x="556" y="20" width="8" height="4" fill="#ffffff" opacity="0.24"/>
<rect x="552" y="20" width="2" height="8" fill="#cfa983"/>
<rect x="566" y="21" width="2" height="8" fill="#cfa983"/>
<rect x="555" y="32" width="4" height="10" fill="#1c3744"/>
<rect x="561" y="30" width="4" height="10" fill="#1c3744"/>
<ellipse cx="560" cy="44" rx="8" ry="3" fill="#000814" opacity="0.35"/>
<rect x="567" y="28" width="2" height="5" fill="#89f3ff"/>
<rect x="559" y="9" width="2" height="2" fill="#7ef6ff" opacity="0.85"/>
<rect x="589" y="13" width="6" height="7" fill="#cfa983"/>
<rect x="586" y="20" width="12" height="12" fill="#67f9ff"/>
<rect x="588" y="21" width="8" height="4" fill="#ffffff" opacity="0.24"/>
<rect x="584" y="22" width="2" height="8" fill="#cfa983"/>
<rect x="598" y="21" width="2" height="8" fill="#cfa983"/>
<rect x="587" y="32" width="4" height="10" fill="#1c3744"/>
<rect x="593" y="32" width="4" height="10" fill="#1c3744"/>
<ellipse cx="592" cy="44" rx="8" ry="3" fill="#000814" opacity="0.35"/>
<rect x="599" y="29" width="2" height="5" fill="#89f3ff"/>
<rect x="591" y="10" width="2" height="2" fill="#7ef6ff" opacity="0.85"/>
<rect x="621" y="14" width="6" height="7" fill="#cfa983"/>
<rect x="618" y="21" width="12" height="12" fill="#67f9ff"/>
<rect x="620" y="22" width="8" height="4" fill="#ffffff" opacity="0.24"/>
<rect x="616" y="22" width="2" height="8" fill="#cfa983"/>
<rect x="630" y="23" width="2" height="8" fill="#cfa983"/>
<rect x="619" y="33" width="4" height="10" fill="#1c3744"/>
<rect x="625" y="33" width="4" height="10" fill="#1c3744"/>
<ellipse cx="624" cy="44" rx="8" ry="3" fill="#000814" opacity="0.35"/>
<rect x="631" y="30" width="2" height="5" fill="#89f3ff"/>
<rect x="623" y="11" width="2" height="2" fill="#7ef6ff" opacity="0.85"/>
</svg>