<svg xmlns="http://www.w3.org/2000/svg" width="200" height="60" viewBox="0 0 200 60">
  <rect width="200" height="60" fill="#04020c"/>
  <!-- Player (pink) -->
  <ellipse cx="20" cy="57" rx="8" ry="3" fill="#000" opacity="0.3"/>
  <rect x="15" y="38" width="4" height="14" fill="#1a1a2e"/>
  <rect x="21" y="38" width="4" height="14" fill="#1a1a2e"/>
  <rect x="14" y="22" width="12" height="16" fill="#8800aa"/>
  <rect x="14" y="18" width="12" height="6" fill="#6600aa"/>
  <circle cx="20" cy="13" r="7" fill="#e8b87a"/>
  <rect x="13" y="6" width="14" height="6" fill="#3300aa"/>
  <rect x="7" y="8" width="4" height="6" fill="#ff4fd8" opacity="0.7"/>
  <rect x="29" y="8" width="4" height="6" fill="#ff4fd8" opacity="0.7"/>
  <rect x="9" y="8" width="3" height="3" fill="#fff" opacity="0.8"/>
  <rect x="28" y="8" width="3" height="3" fill="#fff" opacity="0.8"/>
  <text x="20" y="56" text-anchor="middle" fill="#ff4fd8" font-size="5" font-family="monospace">PLAYER</text>
  <!-- Runner (green hood) -->
  <ellipse cx="60" cy="57" rx="8" ry="3" fill="#000" opacity="0.3"/>
  <rect x="55" y="37" width="4" height="13" fill="#0a0a18"/>
  <rect x="61" y="38" width="4" height="12" fill="#0a0a18"/>
  <rect x="53" y="22" width="14" height="15" fill="#224400"/>
  <rect x="52" y="17" width="16" height="8" fill="#1a3300"/>
  <rect x="54" y="15" width="12" height="5" fill="#112200"/>
  <circle cx="60" cy="11" r="6" fill="#d4a06a"/>
  <rect x="54" y="11" width="12" height="4" fill="#1a3300" opacity="0.8"/>
  <rect x="57" y="7" width="2" height="3" fill="#88ff44" opacity="0.9"/>
  <rect x="62" y="7" width="2" height="3" fill="#88ff44" opacity="0.9"/>
  <text x="60" y="56" text-anchor="middle" fill="#8dff6a" font-size="5" font-family="monospace">RUNNER</text>
  <!-- Trader (gold) -->
  <ellipse cx="100" cy="57" rx="8" ry="3" fill="#000" opacity="0.3"/>
  <rect x="95" y="37" width="4" height="13" fill="#1a1200"/>
  <rect x="101" y="37" width="4" height="13" fill="#1a1200"/>
  <rect x="93" y="22" width="14" height="15" fill="#2a1e00"/>
  <polygon points="98,22 100,28 93,22" fill="#1a1200"/>
  <polygon points="102,22 100,28 107,22" fill="#1a1200"/>
  <rect x="99" y="22" width="2" height="12" fill="#eeeecc" opacity="0.9"/>
  <polygon points="98,24 100,31 102,24" fill="#ffd84d" opacity="0.9"/>
  <rect x="93" y="20" width="14" height="4" fill="#1a1200"/>
  <circle cx="100" cy="12" r="7" fill="#f0c88a"/>
  <rect x="93" y="5" width="14" height="7" fill="#2a1a00"/>
  <rect x="93" y="5" width="14" height="2" fill="#ffd84d" opacity="0.5"/>
  <rect x="97" y="9" width="3" height="3" fill="#fff" opacity="0.9"/>
  <rect x="101" y="9" width="3" height="3" fill="#fff" opacity="0.9"/>
  <text x="100" y="56" text-anchor="middle" fill="#ffd84d" font-size="5" font-family="monospace">TRADER</text>
  <!-- Warden (red armored) -->
  <ellipse cx="140" cy="57" rx="8" ry="3" fill="#000" opacity="0.3"/>
  <rect x="133" y="37" width="5" height="8" fill="#2a0000"/>
  <rect x="133" y="41" width="5" height="4" fill="#3a0000"/>
  <rect x="142" y="37" width="5" height="8" fill="#2a0000"/>
  <rect x="142" y="41" width="5" height="4" fill="#3a0000"/>
  <rect x="131" y="22" width="18" height="16" fill="#3a0000"/>
  <rect x="133" y="23" width="14" height="10" fill="#660000"/>
  <rect x="127" y="22" width="6" height="8" fill="#4a0000"/>
  <rect x="147" y="22" width="6" height="8" fill="#4a0000"/>
  <rect x="133" y="23" width="3" height="3" fill="#ff3355" opacity="0.6"/>
  <rect x="138" y="23" width="3" height="3" fill="#ff3355" opacity="0.6"/>
  <circle cx="140" cy="12" r="8" fill="#3a0000"/>
  <rect x="132" y="8" width="16" height="6" fill="#3a0000"/>
  <rect x="134" y="9" width="12" height="4" fill="#ff3355" opacity="0.8"/>
  <text x="140" y="56" text-anchor="middle" fill="#ff3355" font-size="5" font-family="monospace">WARDEN</text>
  <!-- Oracle (cloaked cyan) -->
  <ellipse cx="180" cy="57" rx="8" ry="3" fill="#000" opacity="0.2"/>
  <polygon points="170,22 180,50 190,22" fill="#080818"/>
  <polygon points="170,22 180,50 190,22" fill="#5ef2ff" opacity="0.1"/>
  <rect x="172" y="20" width="16" height="16" fill="#04040e"/>
  <circle cx="180" cy="18" r="5" fill="#5ef2ff" opacity="0.3"/>
  <circle cx="180" cy="18" r="3" fill="#04040e"/>
  <circle cx="180" cy="18" r="1" fill="#5ef2ff" opacity="0.9"/>
  <ellipse cx="180" cy="11" rx="9" ry="7" fill="#060610"/>
  <circle cx="180" cy="11" r="5" fill="#d4e8f0" opacity="0.7"/>
  <circle cx="177" cy="10" r="2" fill="#5ef2ff" opacity="0.9"/>
  <circle cx="183" cy="10" r="2" fill="#5ef2ff" opacity="0.9"/>
  <text x="180" y="56" text-anchor="middle" fill="#5ef2ff" font-size="5" font-family="monospace">ORACLE</text>
</svg>
