<svg xmlns="http://www.w3.org/2000/svg" viewBox="0 0 1400 420" shape-rendering="crispEdges" preserveAspectRatio="none">
  <rect x="0" y="0" width="1400" height="420" fill="none"/>
  <rect x="8" y="8" width="1384" height="404" fill="none" stroke="#ff2d78" stroke-width="4" opacity="0.75"/>
  <rect x="18" y="18" width="1364" height="384" fill="none" stroke="#00e5ff" stroke-width="2" opacity="0.38"/>
  <path d="M8 8h76v8H16v68H8z M1316 8h76v76h-8V16h-68z M8 336h8v68h68v8H8z M1384 336h8v76h-76v-8h68z" fill="#00e5ff" opacity="0.55"/>
  <g opacity="0.18">
    <rect x="0" y="0" width="1400" height="1" fill="#000"/><rect x="0" y="4" width="1400" height="1" fill="#000"/><rect x="0" y="8" width="1400" height="1" fill="#000"/><rect x="0" y="12" width="1400" height="1" fill="#000"/><rect x="0" y="16" width="1400" height="1" fill="#000"/><rect x="0" y="20" width="1400" height="1" fill="#000"/><rect x="0" y="24" width="1400" height="1" fill="#000"/><rect x="0" y="28" width="1400" height="1" fill="#000"/><rect x="0" y="32" width="1400" height="1" fill="#000"/><rect x="0" y="36" width="1400" height="1" fill="#000"/><rect x="0" y="40" width="1400" height="1" fill="#000"/><rect x="0" y="44" width="1400" height="1" fill="#000"/><rect x="0" y="48" width="1400" height="1" fill="#000"/><rect x="0" y="52" width="1400" height="1" fill="#000"/><rect x="0" y="56" width="1400" height="1" fill="#000"/><rect x="0" y="60" width="1400" height="1" fill="#000"/><rect x="0" y="64" width="1400" height="1" fill="#000"/><rect x="0" y="68" width="1400" height="1" fill="#000"/><rect x="0" y="72" width="1400" height="1" fill="#000"/><rect x="0" y="76" width="1400" height="1" fill="#000"/><rect x="0" y="80" width="1400" height="1" fill="#000"/><rect x="0" y="84" width="1400" height="1" fill="#000"/><rect x="0" y="88" width="1400" height="1" fill="#000"/><rect x="0" y="92" width="1400" height="1" fill="#000"/><rect x="0" y="96" width="1400" height="1" fill="#000"/><rect x="0" y="100" width="1400" height="1" fill="#000"/><rect x="0" y="104" width="1400" height="1" fill="#000"/><rect x="0" y="108" width="1400" height="1" fill="#000"/><rect x="0" y="112" width="1400" height="1" fill="#000"/><rect x="0" y="116" width="1400" height="1" fill="#000"/><rect x="0" y="120" width="1400" height="1" fill="#000"/><rect x="0" y="124" width="1400" height="1" fill="#000"/><rect x="0" y="128" width="1400" height="1" fill="#000"/><rect x="0" y="132" width="1400" height="1" fill="#000"/><rect x="0" y="136" width="1400" height="1" fill="#000"/><rect x="0" y="140" width="1400" height="1" fill="#000"/><rect x="0" y="144" width="1400" height="1" fill="#000"/><rect x="0" y="148" width="1400" height="1" fill="#000"/><rect x="0" y="152" width="1400" height="1" fill="#000"/><rect x="0" y="156" width="1400" height="1" fill="#000"/><rect x="0" y="160" width="1400" height="1" fill="#000"/><rect x="0" y="164" width="1400" height="1" fill="#000"/><rect x="0" y="168" width="1400" height="1" fill="#000"/><rect x="0" y="172" width="1400" height="1" fill="#000"/><rect x="0" y="176" width="1400" height="1" fill="#000"/><rect x="0" y="180" width="1400" height="1" fill="#000"/><rect x="0" y="184" width="1400" height="1" fill="#000"/><rect x="0" y="188" width="1400" height="1" fill="#000"/><rect x="0" y="192" width="1400" height="1" fill="#000"/><rect x="0" y="196" width="1400" height="1" fill="#000"/><rect x="0" y="200" width="1400" height="1" fill="#000"/><rect x="0" y="204" width="1400" height="1" fill="#000"/><rect x="0" y="208" width="1400" height="1" fill="#000"/><rect x="0" y="212" width="1400" height="1" fill="#000"/><rect x="0" y="216" width="1400" height="1" fill="#000"/><rect x="0" y="220" width="1400" height="1" fill="#000"/><rect x="0" y="224" width="1400" height="1" fill="#000"/><rect x="0" y="228" width="1400" height="1" fill="#000"/><rect x="0" y="232" width="1400" height="1" fill="#000"/><rect x="0" y="236" width="1400" height="1" fill="#000"/><rect x="0" y="240" width="1400" height="1" fill="#000"/><rect x="0" y="244" width="1400" height="1" fill="#000"/><rect x="0" y="248" width="1400" height="1" fill="#000"/><rect x="0" y="252" width="1400" height="1" fill="#000"/><rect x="0" y="256" width="1400" height="1" fill="#000"/><rect x="0" y="260" width="1400" height="1" fill="#000"/><rect x="0" y="264" width="1400" height="1" fill="#000"/><rect x="0" y="268" width="1400" height="1" fill="#000"/><rect x="0" y="272" width="1400" height="1" fill="#000"/><rect x="0" y="276" width="1400" height="1" fill="#000"/><rect x="0" y="280" width="1400" height="1" fill="#000"/><rect x="0" y="284" width="1400" height="1" fill="#000"/><rect x="0" y="288" width="1400" height="1" fill="#000"/><rect x="0" y="292" width="1400" height="1" fill="#000"/><rect x="0" y="296" width="1400" height="1" fill="#000"/><rect x="0" y="300" width="1400" height="1" fill="#000"/><rect x="0" y="304" width="1400" height="1" fill="#000"/><rect x="0" y="308" width="1400" height="1" fill="#000"/><rect x="0" y="312" width="1400" height="1" fill="#000"/><rect x="0" y="316" width="1400" height="1" fill="#000"/><rect x="0" y="320" width="1400" height="1" fill="#000"/><rect x="0" y="324" width="1400" height="1" fill="#000"/><rect x="0" y="328" width="1400" height="1" fill="#000"/><rect x="0" y="332" width="1400" height="1" fill="#000"/><rect x="0" y="336" width="1400" height="1" fill="#000"/><rect x="0" y="340" width="1400" height="1" fill="#000"/><rect x="0" y="344" width="1400" height="1" fill="#000"/><rect x="0" y="348" width="1400" height="1" fill="#000"/><rect x="0" y="352" width="1400" height="1" fill="#000"/><rect x="0" y="356" width="1400" height="1" fill="#000"/><rect x="0" y="360" width="1400" height="1" fill="#000"/><rect x="0" y="364" width="1400" height="1" fill="#000"/><rect x="0" y="368" width="1400" height="1" fill="#000"/><rect x="0" y="372" width="1400" height="1" fill="#000"/><rect x="0" y="376" width="1400" height="1" fill="#000"/><rect x="0" y="380" width="1400" height="1" fill="#000"/><rect x="0" y="384" width="1400" height="1" fill="#000"/><rect x="0" y="388" width="1400" height="1" fill="#000"/><rect x="0" y="392" width="1400" height="1" fill="#000"/><rect x="0" y="396" width="1400" height="1" fill="#000"/><rect x="0" y="400" width="1400" height="1" fill="#000"/><rect x="0" y="404" width="1400" height="1" fill="#000"/><rect x="0" y="408" width="1400" height="1" fill="#000"/><rect x="0" y="412" width="1400" height="1" fill="#000"/><rect x="0" y="416" width="1400" height="1" fill="#000"/>
  </g>
</svg>