<svg xmlns="http://www.w3.org/2000/svg" width="320" height="120" viewBox="0 0 320 120">
  <rect width="320" height="120" fill="#04020c"/>
  <!-- Generic building -->
  <polygon points="40,20 80,40 40,60 0,40" fill="#1e1e42"/>
  <polygon points="0,40 40,60 40,100 0,80" fill="#0e0e24"/>
  <rect x="5" y="50" width="8" height="6" fill="#88ddff" opacity="0.7"/>
  <rect x="18" y="50" width="8" height="6" fill="#ffdd88" opacity="0.7"/>
  <rect x="5" y="62" width="8" height="6" fill="#ffdd88" opacity="0.7"/>
  <rect x="18" y="62" width="8" height="6" fill="#88ddff" opacity="0.4"/>
  <polygon points="40,60 80,40 80,80 40,100" fill="#0a0a1c"/>
  <rect x="46" y="48" width="8" height="6" fill="#88ddff" opacity="0.6"/>
  <rect x="60" y="48" width="8" height="6" fill="#ffdd88" opacity="0.5"/>
  <rect x="46" y="60" width="8" height="6" fill="#ffdd88" opacity="0.7"/>
  <rect x="0" y="96" width="40" height="3" fill="#ff4fd8" opacity="0.4"/>
  <!-- Exchange building -->
  <polygon points="160,10 200,30 160,50 120,30" fill="#2a1e00"/>
  <polygon points="120,30 160,50 160,100 120,80" fill="#1a1200"/>
  <rect x="125" y="40" width="8" height="5" fill="#ffdd44" opacity="0.8"/>
  <rect x="138" y="40" width="8" height="5" fill="#ffaa22" opacity="0.8"/>
  <rect x="125" y="50" width="8" height="5" fill="#ffaa22" opacity="0.7"/>
  <rect x="138" y="50" width="8" height="5" fill="#ffdd44" opacity="0.9"/>
  <rect x="125" y="60" width="8" height="5" fill="#ffdd44" opacity="0.6"/>
  <rect x="138" y="60" width="8" height="5" fill="#ffaa22" opacity="0.7"/>
  <rect x="120" y="92" width="40" height="4" fill="#ffd84d" opacity="0.55"/>
  <rect x="120" y="94" width="14" height="2" fill="#ffffff" opacity="0.4"/>
  <polygon points="160,50 200,30 200,80 160,100" fill="#120e00"/>
  <rect x="165" y="38" width="8" height="5" fill="#ffdd44" opacity="0.75"/>
  <rect x="178" y="38" width="8" height="5" fill="#ffaa22" opacity="0.65"/>
  <rect x="165" y="50" width="8" height="5" fill="#ffaa22" opacity="0.8"/>
  <rect x="165" y="78" width="20" height="3" fill="#8dff6a" opacity="0.4"/>
  <!-- Mural building -->
  <polygon points="280,20 320,40 280,60 240,40" fill="#2a0028"/>
  <polygon points="240,40 280,60 280,100 240,80" fill="#180018"/>
  <ellipse cx="255" cy="70" rx="12" ry="15" fill="#ff4fd8" opacity="0.35"/>
  <polygon points="248,65 260,58 265,72" fill="#8dff6a" opacity="0.5"/>
  <rect x="244" y="85" width="6" height="3" fill="#5ef2ff" opacity="0.5"/>
  <rect x="256" y="85" width="4" height="3" fill="#ff4fd8" opacity="0.4"/>
  <rect x="240" y="96" width="40" height="3" fill="#ff4fd8" opacity="0.4"/>
  <polygon points="280,60 320,40 320,80 280,100" fill="#100010"/>
  <rect x="285" y="48" width="7" height="5" fill="#ff88dd" opacity="0.6"/>
  <rect x="298" y="48" width="7" height="5" fill="#dd44bb" opacity="0.6"/>
  <rect x="285" y="60" width="7" height="5" fill="#dd44bb" opacity="0.7"/>
</svg>
